<svg id="Layer_1" data-name="Layer 1" xmlns="http://www.w3.org/2000/svg" viewBox="0 0 700 550"><title>skating</title><path d="M436.87821,87.99354c-.1898,1.59148-.36557,3.17629-.51526,4.75209-.0686.78859-.13109,1.57518-.17218,2.358-.02614.77652-.076,1.61545-.17065,2.41756a22.32483,22.32483,0,0,1-3.29637,9.10254c-.77735,1.4052-1.58569,2.79118-2.47069,4.14056a22.4089,22.4089,0,0,1-3.03944,3.81514,11.92137,11.92137,0,0,1-4.19932,2.70388,9.39928,9.39928,0,0,1-5.08231.40826l.80238-.39587c-.47856.98982-.95067,2.0211-1.37629,3.05269-.44423,1.02792-.85173,2.07165-1.18995,3.13211a16.83118,16.83118,0,0,0-.75582,3.21829c-.096,1.051-.06728,2.26726.894,2.90684l.01383.0092a.0642.0642,0,0,1,.01789.089l-.01309.01437-.01063.00859a.069.069,0,0,1-.09708-.09707l.00859-.01062.0186.11232a2.19223,2.19223,0,0,1-1.22159-1.28792,4.9076,4.9076,0,0,1-.32668-1.76769,13.77346,13.77346,0,0,1,.41194-3.48718,33.303,33.303,0,0,1,2.30848-6.5413.71863.71863,0,0,1,.781-.40026l.02165.00421a8.93388,8.93388,0,0,0,4.364-.23265,12.33385,12.33385,0,0,0,3.93328-2.22686,21.51385,21.51385,0,0,0,5.79836-7.3821,30.51374,30.51374,0,0,0,2.50444-9.04276c.21291-1.523.29139-3.17106.63924-4.75221a31.468,31.468,0,0,1,1.28639-4.65426.069.069,0,0,1,.08837-.0414A.07066.07066,0,0,1,436.87821,87.99354Z"/><path d="M395.73735,145.52758a5.56191,5.56191,0,0,1-2.14806-1.49926,7.357,7.357,0,0,1-1.43117-2.17189c-.33161-.80346-.475-1.66988-.74993-2.46587a19.53155,19.53155,0,0,0-.99181-2.33453,14.76451,14.76451,0,0,1-.95672-2.36611,20.32073,20.32073,0,0,1-.66172-2.45318,18.35529,18.35529,0,0,1-.23958-5.08382.07085.07085,0,0,1,.07775-.06323.07242.07242,0,0,1,.058.04284,30.41873,30.41873,0,0,1,1.53594,4.79931c.19145.80482.32737,1.62245.48625,2.43463.16436.81152.2969,1.63137.41668,2.46281a8.7034,8.7034,0,0,0,.6884,2.39571,14.45912,14.45912,0,0,0,1.34525,2.09425c.8626,1.38854,1.62594,2.72557,2.65215,4.09782a.07171.07171,0,0,1-.01448.10038A.07246.07246,0,0,1,395.73735,145.52758Z"/><path d="M336.59218,202.63961a278.10028,278.10028,0,0,0-29.72492,23.06821c-4.71634,4.13358-9.32542,8.391-13.77421,12.81027-2.27623,2.15686-4.47112,4.39615-6.6769,6.62509a79.60718,79.60718,0,0,1-6.93213,6.504,81.20028,81.20028,0,0,1-15.98564,10.21439,101.43155,101.43155,0,0,1-17.73151,6.594q-4.56921,1.22906-9.23707,2.029c-3.1041.5506-6.23232.97526-9.37761,1.22754a74.13056,74.13056,0,0,1-9.46721.19883,40.2394,40.2394,0,0,1-4.73816-.45923,17.80653,17.80653,0,0,1-2.35409-.53928,7.66026,7.66026,0,0,1-1.16327-.4617,2.44627,2.44627,0,0,1-1.08533-.945l-.92835-1.62463,1.58255,1.03174a57.49509,57.49509,0,0,1,11.69651,10.02484c3.38745,3.85739,6.274,8.4505,7.18139,13.72165a18.85369,18.85369,0,0,1,.251,3.97351c-.09122,1.28824-.13446,2.58212-.30318,3.86377a56.60557,56.60557,0,0,1-1.3293,7.632,58.912,58.912,0,0,1-5.48922,14.51852l-.87976-1.45367a139.442,139.442,0,0,0,14.54486-2.01456q7.24275-1.31388,14.351-3.26364a140.39651,140.39651,0,0,0,27.37828-10.60208,90.25946,90.25946,0,0,0,23.55772-17.33393A68.85842,68.85842,0,0,0,315.298,263.08065l.184.06a66.6358,66.6358,0,0,1-14.65164,25.65067A88.12755,88.12755,0,0,1,277.23486,306.879a131.69134,131.69134,0,0,1-27.678,10.968,151.46731,151.46731,0,0,1-29.31943,5.26505l-1.76794.13125.88806-1.58505a57.29135,57.29135,0,0,0,5.40579-13.9545,59.34816,59.34816,0,0,0,1.38037-7.40243c.18469-1.24365.24509-2.49881.35477-3.75037a17.23471,17.23471,0,0,0-.17246-3.64306,21.88905,21.88905,0,0,0-2.38714-6.95612,35.31351,35.31351,0,0,0-4.20517-6.19223,55.44262,55.44262,0,0,0-11.22382-10.071l.65414-.59286a1.677,1.677,0,0,0,.67994.56522,6.81093,6.81093,0,0,0,1.01764.42706,16.9991,16.9991,0,0,0,2.228.55859,38.3988,38.3988,0,0,0,4.6337.54331,73.45132,73.45132,0,0,0,9.37909-.12516,93.7419,93.7419,0,0,0,9.32545-1.15744q4.62566-.84288,9.158-2.11117a88.72436,88.72436,0,0,0,17.44367-6.8635,80.31606,80.31606,0,0,0,15.4738-10.44809c2.36355-2.04147,4.55725-4.2023,6.72854-6.48834,2.19472-2.26181,4.37929-4.53442,6.64621-6.72519,4.52355-4.39114,9.21-8.61209,13.99913-12.70892,4.77056-4.12,9.74993-7.99347,14.82618-11.72434l3.84031-2.75314c1.30507-.883,2.594-1.7872,3.91587-2.64438,2.62593-1.73874,5.28228-3.43158,8.035-4.96777Z"/><path d="M395.23619,145.0368c.14507.17419.30952.33875.46451.50326-16.27775,14.71014-35.17859,34.12363-35.17859,34.12363-.35819-2.85493,0-32.85585,0-32.85585,21.61042-9.9971,21.78478-27.49437,21.78478-27.49437l6.31935,1.16128s-.63888,16.47149,6.59058,24.54273Z"/><path d="M425.87576,132.88159a3.83305,3.83305,0,0,1,.70645.9l-7.61624-3.03876c.02883-.15488.03875-.23231.03875-.23231Z"/><path d="M433.41484,171.98a24.04978,24.04978,0,0,1-2.35186,10.58743c-.75465.53226-1.48048,1.04515-2.21623,1.529a18.0692,18.0692,0,0,1-2.255,1.29684,10.65488,10.65488,0,0,1-2.38068.871,8.68317,8.68317,0,0,1-2.6127.08707,4.734,4.734,0,0,0,2.70013.65808,7.29814,7.29814,0,0,0,2.71949-.74515,9.95959,9.95959,0,0,0,2.29326-1.57747,9.00933,9.00933,0,0,0,1.75172-2.11942c-4.39372,9.60027-9.47452,32.44935-9.47452,32.44935-4.96455,3.72595-11.86465,3.47432-19.31668,1.113,9.05821-18.42641,17.46809-44.89494,24.31053-82.34771,3.58095,5.83569,3.58095,27.66861,3.58095,27.66861C432.57276,164.50876,433.318,168.51534,433.41484,171.98Z"/><path d="M416.32045,217.41635a10.141,10.141,0,0,1,.36989,2.19424,18.53346,18.53346,0,0,1,.03884,2.13672c-.01928.7059-.08621,1.40515-.16843,2.10617-.06534.70682-.19533,1.37625-.2403,2.14771a4.1922,4.1922,0,0,1-.91974-2.09781,10.09453,10.09453,0,0,1-.158-2.21054,11.64132,11.64132,0,0,1,.29456-2.1731A7.65885,7.65885,0,0,1,416.32045,217.41635Z"/><path d="M419.00459,226.001a115.51034,115.51034,0,0,1-19.39418-4.69373c-34.91728,64.25038-77.81867,15.80373-77.81867,15.80373s-.41584-4.955,2.952-13.51011c-8.47793,18.9393-10.4423,40.69484-10.70361,54.68878a69.38344,69.38344,0,0,1-9.12626,32.89455c-20.71022,36.51406-39.19475,48.108-39.19475,48.108,7.77147,16.87794,34.8979,36.24306,34.8979,36.24306.05812-.9194.13562-1.82911.21312-2.7485h-.00993a1.45259,1.45259,0,0,1,0-2.90332,1.3418,1.3418,0,0,1,.29062.02907c.09687-.871.18382-1.73235.28069-2.59363.29014-2.73881.65778-5.45824,1.02589-8.18736.387-2.71944.78348-5.43888,1.248-8.14862l.70645-4.06466c.27124-1.3549.50326-2.70975.80333-4.055-.087,1.37422-.22257,2.74844-.33835,4.113l-.43568,4.10334c-.29014,2.73881-.65826,5.46793-1.0259,8.18737-.387,2.71943-.784,5.43887-1.24846,8.15831-.155.9097-.30952,1.80972-.46451,2.71943a1.49656,1.49656,0,0,1-.48389,2.60331c-.17437.929-.35819,1.8581-.56138,2.78719-.53209,8.57444-5.62281,18.75542-5.62281,18.75542,25.714,21.95874,79.19283.38707,79.19283.38707C367.3063,362.86325,419.00459,226.001,419.00459,226.001ZM270.39352,361.89548a1.45258,1.45258,0,0,1,0-2.90332A1.45258,1.45258,0,0,1,270.39352,361.89548Zm4.1806,5.57437a1.45259,1.45259,0,0,1,0-2.90332A1.45259,1.45259,0,0,1,274.57412,367.46985Zm5.1101,5.34206a1.45258,1.45258,0,0,1,0-2.90332A1.45258,1.45258,0,0,1,279.68422,372.81191Zm5.34212,5.80663a1.45258,1.45258,0,0,1,0-2.90332A1.45258,1.45258,0,0,1,285.02634,378.61854Zm5.57414,4.64535a1.45259,1.45259,0,0,1,0-2.90332A1.45259,1.45259,0,0,1,290.60048,383.26389Zm5.57461,4.64529a1.45257,1.45257,0,0,1,0-2.90331A1.45257,1.45257,0,0,1,296.17509,387.90918Zm3.25158,26.94273a1.45257,1.45257,0,0,1,0-2.90331A1.45257,1.45257,0,0,1,299.42667,414.85191Zm6.27114,2.78719a1.45259,1.45259,0,0,1,0-2.90332A1.45259,1.45259,0,0,1,305.69781,417.6391Zm7.89717,2.32267a1.45257,1.45257,0,0,1,0-2.90331A1.45257,1.45257,0,0,1,313.595,419.96177Zm8.82619,1.3936a1.45258,1.45258,0,0,1,0-2.90332A1.45258,1.45258,0,0,1,322.42117,421.35537Zm9.29023,0a1.45259,1.45259,0,0,1,0-2.90332A1.45259,1.45259,0,0,1,331.7114,421.35537Zm8.82619-.46452a1.45258,1.45258,0,0,1,0-2.90331A1.45258,1.45258,0,0,1,340.53759,420.89085Zm9.75521-1.6259a1.45258,1.45258,0,0,1,0-2.90332A1.45258,1.45258,0,0,1,350.2928,419.265Zm9.98723-2.32262a1.45258,1.45258,0,0,1,0-2.90331A1.45258,1.45258,0,0,1,360.28,416.94233Zm8.36168-2.32268a1.45258,1.45258,0,0,1,0-2.90331A1.45258,1.45258,0,0,1,368.64171,414.61965Z"/><path d="M296.71159,415.66753s-16.98215,25.40258-33.05206,36.38369-2.67832,21.69437,9.642,16.8734c0,0,15.21607-2.94615,23.41011-15.80207,0,0,3.90873-5.8923,10.06886-2.94615,0,0,5.8759.13664,9.9168-3.49431a10.63112,10.63112,0,0,0,3.32449-8.60706c-.25106-3.99932-.65358-12.24048.1503-14.09077" fill="none" stroke="#000" stroke-miterlimit="10" stroke-width="1.48795"/><path d="M268.74833,452.58688a59.199,59.199,0,0,0,5.17141-3.01923c.84245-.53189,1.66055-1.1022,2.49044-1.651l2.40972-1.763a68.78083,68.78083,0,0,0,8.86651-7.94516c1.41712-1.394,2.64931-2.95242,3.94184-4.4599,1.15736-1.61017,2.41142-3.15832,3.44032-4.85885.52789-.84067,1.098-1.65927,1.59335-2.52076l1.40842-2.63189c.23253-.44016.50189-.8642.70485-1.31882l.60777-1.36606q.6024-1.36986,1.23735-2.73413a49.9055,49.9055,0,0,1-4.92035,10.966l-.76118,1.30576c-.26337.4292-.57529.826-.86069,1.24063l-1.75541,2.46c-1.28788,1.54764-2.51589,3.15122-3.93573,4.58414a62.62428,62.62428,0,0,1-9.13022,7.87765A53.18488,53.18488,0,0,1,268.74833,452.58688Z"/><path d="M274.105,445.62326a13.60855,13.60855,0,0,1,2.78476,2.63992,13.45584,13.45584,0,0,1,2.03621,3.25235,13.45462,13.45462,0,0,1-2.78478-2.63989A13.60882,13.60882,0,0,1,274.105,445.62326Z"/><path d="M277.59607,442.67712a13.60981,13.60981,0,0,1,2.78477,2.63989,13.4553,13.4553,0,0,1,2.0362,3.25238,13.45566,13.45566,0,0,1-2.78478-2.63989A13.60973,13.60973,0,0,1,277.59607,442.67712Z"/><path d="M281.0686,439.731a13.60887,13.60887,0,0,1,2.78476,2.63993,13.45526,13.45526,0,0,1,2.03621,3.25238,13.45475,13.45475,0,0,1-2.78477-2.63993A13.609,13.609,0,0,1,281.0686,439.731Z"/><path d="M284.68432,436.17974a13.60872,13.60872,0,0,1,2.78478,2.63993,13.45507,13.45507,0,0,1,2.03619,3.25238,13.45491,13.45491,0,0,1-2.78476-2.63992A13.60926,13.60926,0,0,1,284.68432,436.17974Z"/><path d="M288.225,432.50634a13.60872,13.60872,0,0,1,2.78478,2.63993,13.4544,13.4544,0,0,1,2.03621,3.25238,13.45509,13.45509,0,0,1-2.78478-2.63993A13.6096,13.6096,0,0,1,288.225,432.50634Z"/><path d="M291.398,428.36007A13.60872,13.60872,0,0,1,294.1828,431a13.45526,13.45526,0,0,1,2.03621,3.25238,13.4548,13.4548,0,0,1-2.78478-2.63993A13.60932,13.60932,0,0,1,291.398,428.36007Z"/><path d="M293.80852,424.61044a13.60888,13.60888,0,0,1,2.78477,2.63992,13.45411,13.45411,0,0,1,2.03619,3.25238,13.45648,13.45648,0,0,1-2.78476-2.63992A13.60945,13.60945,0,0,1,293.80852,424.61044Z"/><path d="M297.04017,419.61267a13.60841,13.60841,0,0,1,2.78478,2.63992,13.45507,13.45507,0,0,1,2.03619,3.25238,13.45465,13.45465,0,0,1-2.78476-2.63992A13.6092,13.6092,0,0,1,297.04017,419.61267Z"/><path d="M310.79793,443.30205c2.87228,0,2.877-4.46387,0-4.46387-2.87229,0-2.877,4.46387,0,4.46387Z"/><path d="M267.916,470.1117a6.66794,6.66794,0,1,0,6.66808,6.668A6.6681,6.6681,0,0,0,267.916,470.1117Zm-.0775,8.38088a1.45258,1.45258,0,0,1,0-2.90331A1.45258,1.45258,0,0,1,267.83847,478.49258Z"/><path d="M284.68753,464.67283a6.66309,6.66309,0,1,0,6.66808,6.65828A6.66,6.66,0,0,0,284.68753,464.67283Zm.10632,7.54861a1.45258,1.45258,0,0,1,0-2.90331A1.45258,1.45258,0,0,1,284.79385,472.22144Z"/><path d="M315.48232,448.5691a6.66793,6.66793,0,1,0,6.66761,6.668A6.66819,6.66819,0,0,0,315.48232,448.5691Zm-.0293,7.8583a1.45257,1.45257,0,0,1,0-2.90331A1.45257,1.45257,0,0,1,315.453,456.4274Z"/><path d="M296.71157,453.12241c-.36055.56562-.739,1.10544-1.12487,1.63327a6.60745,6.60745,0,0,0,10.74862-4.75775C300.43636,447.54077,296.71157,453.12241,296.71157,453.12241Z"/><path d="M299.58028,403.307s-20.47,16.30591-28.6963,30.80473-18.32514,3.83313-15.08909-7.026c0,0,1.42937-13.197,11.81753-21.1075,0,0,4.75032-3.75632,1.79645-8.80388,0,0-.0164-.15329-.02841-.42609a11.02117,11.02117,0,0,1,11.693-11.3877c2.94473.16527,6.56488.22035,7.70714-.39365" fill="none" stroke="#000" stroke-miterlimit="10" stroke-width="1.2744"/><path d="M270.06387,429.80664a44.58014,44.58014,0,0,1,4.185-9.41269,53.25132,53.25132,0,0,1,6.066-8.3729c1.12452-1.31445,2.40885-2.47689,3.64083-3.6864l1.97886-1.6734c.33435-.273.65123-.56772.99984-.8226l1.06427-.73993a41.8844,41.8844,0,0,1,9.04054-4.93878q-1.11572.64837-2.23686,1.26742a19.68429,19.68429,0,0,0-2.18909,1.32477l-2.13887,1.397c-.69749.48645-1.353,1.0335-2.03017,1.546-1.37133,1.005-2.60275,2.1828-3.89076,3.28646-1.19153,1.21076-2.43053,2.37363-3.51646,3.6821a59.41187,59.41187,0,0,0-6.15526,8.11576l-1.34,2.17584c-.41183.74527-.84236,1.48245-1.23945,2.23724C271.4765,426.68783,270.74107,428.23071,270.06387,429.80664Z"/><path d="M275.6253,424.73812a10.08568,10.08568,0,0,1-2.96045-1.44876,9.97207,9.97207,0,0,1-2.41244-2.24572,9.97271,9.97271,0,0,1,2.96045,1.44876A10.08616,10.08616,0,0,1,275.6253,424.73812Z"/><path d="M277.89087,421.54837a10.08679,10.08679,0,0,1-2.96045-1.44876,9.97233,9.97233,0,0,1-2.41245-2.24573,9.97259,9.97259,0,0,1,2.96045,1.44876A10.08623,10.08623,0,0,1,277.89087,421.54837Z"/><path d="M280.15776,418.37445a10.08593,10.08593,0,0,1-2.96045-1.44876,9.97233,9.97233,0,0,1-2.41245-2.24573,9.97271,9.97271,0,0,1,2.96045,1.44876A10.08661,10.08661,0,0,1,280.15776,418.37445Z"/><path d="M282.93085,415.03515a10.08556,10.08556,0,0,1-2.96045-1.44876,9.97241,9.97241,0,0,1-2.41245-2.2457,9.973,9.973,0,0,1,2.96045,1.44874A10.08676,10.08676,0,0,1,282.93085,415.03515Z"/><path d="M285.8136,411.75119a10.08667,10.08667,0,0,1-2.96045-1.44876,9.97233,9.97233,0,0,1-2.41245-2.24573,9.97283,9.97283,0,0,1,2.96045,1.44876A10.08661,10.08661,0,0,1,285.8136,411.75119Z"/><path d="M289.12614,408.74734a10.08642,10.08642,0,0,1-2.96045-1.44876,9.97191,9.97191,0,0,1-2.41244-2.24573,9.97235,9.97235,0,0,1,2.96045,1.44876A10.087,10.087,0,0,1,289.12614,408.74734Z"/><path d="M292.15455,406.42257a10.08624,10.08624,0,0,1-2.96044-1.44876,9.972,9.972,0,0,1-2.41245-2.24573,9.97309,9.97309,0,0,1,2.96045,1.44877A10.08672,10.08672,0,0,1,292.15455,406.42257Z"/><path d="M296.18966,403.30792a10.08661,10.08661,0,0,1-2.96044-1.44876,9.972,9.972,0,0,1-2.41245-2.24573,9.97307,9.97307,0,0,1,2.96045,1.44876A10.08657,10.08657,0,0,1,296.18966,403.30792Z"/><path d="M276.89457,395.00756a1.91274,1.91274,0,0,0,0-3.82319,1.91274,1.91274,0,0,0,0,3.82319Z"/><path d="M255.17049,431.7686a5.71011,5.71011,0,1,0-5.21642,6.1647A5.72149,5.72149,0,0,0,255.17049,431.7686Zm-5.44844,1.66454a1.45258,1.45258,0,0,1,0-2.90332A1.45258,1.45258,0,0,1,249.72205,433.43314Z"/><path d="M258.61582,417.06814a5.729,5.729,0,1,0,.01937.48389C258.63519,417.38747,258.62574,417.23265,258.61582,417.06814Zm-5.4097,1.5a1.45258,1.45258,0,0,1,0-2.90332A1.45258,1.45258,0,0,1,253.20612,418.56818Z"/><path d="M271.41,388.38338a5.71034,5.71034,0,1,0-5.21642,6.1647,5.64249,5.64249,0,0,0,3.813-1.93554v-.00969l.00945-.00969a5.46654,5.46654,0,0,0,1.24846-2.41943v-.00962a.00965.00965,0,0,0,.00992-.00969A5.65845,5.65845,0,0,0,271.41,388.38338Zm-5.894,1.88717a1.45259,1.45259,0,0,1,0-2.90332A1.45259,1.45259,0,0,1,265.51591,390.27055Z"/><path d="M267.61253,405.97821c-.457.34807-.89078.70956-1.31377,1.07656a5.65912,5.65912,0,0,1,3.29418-9.51326C272.11082,402.401,267.61253,405.97821,267.61253,405.97821Z"/><path d="M324.65361,223.565a67.95976,67.95976,0,0,1,6.30072-12.88873,101.42418,101.42418,0,0,1,8.44777-11.63852c3.09636-3.665,6.39892-7.14843,9.82678-10.49933l2.603-2.47978c.87248-.82154,1.78734-1.59569,2.67893-2.39574,1.77037-1.616,3.651-3.10123,5.48994-4.63438l-.06734.06187c2.89132-2.90912,5.85145-5.73839,8.79831-8.58438l8.91214-8.45938,8.924-8.443,4.46238-4.22184,4.54824-4.20858-.04147.03228c3.17461-2.94421,6.38061-5.85754,9.69351-8.6624,1.65625-1.403,3.33787-2.78006,5.08636-4.08911a27.94426,27.94426,0,0,1,5.67815-3.49325l-.27147.17515.00943-.00964.34729-.35552.47969.18551,10.35038,4.00263.6716.25974-.12845.72224c-1.34347,7.55379-2.79806,15.09145-4.46631,22.58638q-2.51738,11.23847-5.783,22.30008c-2.23146,7.35085-4.661,14.64954-7.52566,21.78176a160.81819,160.81819,0,0,1-9.98291,20.74362l-.17045-.09171,2.47028-5.18328c.77239-1.75071,1.57605-3.48505,2.29128-5.25876,1.50938-3.51139,2.86572-7.08615,4.17539-10.6738,2.56928-7.19548,4.88839-14.4781,6.9078-21.84735,2.06121-7.35677,3.89515-14.77736,5.60925-22.22681q2.58411-11.17181,4.73169-22.44847l.543.9817L415.99113,130.381l.82665-.16994-.00965.00942-.11734.11462-.15445.06076a29.22482,29.22482,0,0,0-5.43094,3.1525c-1.75937,1.22206-3.47415,2.52685-5.16691,3.86062-3.38235,2.67421-6.6706,5.48017-9.91924,8.33l-.04178.03254-4.5058,4.08679-4.50452,4.16777q-4.44545,4.23147-8.78877,8.56927-4.31764,4.36337-8.57756,8.78221l-8.48984,8.8593-.02284.02384-.04479.0383c-3.611,3.08732-7.20191,6.193-10.65111,9.45375-3.44066,3.267-6.75777,6.6653-9.87059,10.24278a109.863,109.863,0,0,0-8.72646,11.22348c-1.33165,1.96344-2.57933,3.98242-3.76306,6.04239-1.15054,2.07706-2.22981,4.19711-3.19847,6.37466Z"/><path d="M427.51172,71.08184s-9.87979,14.45572-25.22285,12.84424c0,0-2.86079-6.56591-6.912-1.31252a11.34173,11.34173,0,0,0-2.36239,7.97347c.24984,2.5698,1.45188,5.19844,5.5078,4.43579,0,0,10.92875,18.33434,4.07865,26.6385s-27.99015,5.96086-29.20933,1.53855,5.02612-28.31176,11.866-38.31956,14.68193-23.34386,36.957-16.40738Z"/><path d="M430.46816,95.25671a3.54172,3.54172,0,0,1,.73535,1.63655,2.72271,2.72271,0,0,1-.31493,1.99431,2.35138,2.35138,0,0,1-.4827.4622,1.70927,1.70927,0,0,1-.62855.22225,2.11694,2.11694,0,0,1-1.08874-.17378,3.78581,3.78581,0,0,1-.78117-.51746,4.38588,4.38588,0,0,1-.5736-.70892,5.69945,5.69945,0,0,1,.87189.10446l.75965.087a1.62335,1.62335,0,0,1,.31893-.00748c.10395.00656.15743-.051.23194-.05725a.59028.59028,0,0,0,.24187-.18919,3.67424,3.67424,0,0,0,.37832-1.20223C430.22987,96.39918,430.3078,95.85482,430.46816,95.25671Z"/><path d="M416.00476,84.09918a4.181,4.181,0,0,1,2.13681-.96327,5.73249,5.73249,0,0,1,2.3829.0896,5.92918,5.92918,0,0,1,2.14135,1.02519,5.17664,5.17664,0,0,1,1.52822,1.75853c-.75131-.26673-1.39329-.58042-2.05349-.82486a15.48677,15.48677,0,0,0-6.13579-1.08519Z"/><path d="M431.71422,89.2778a2.69472,2.69472,0,0,1,1.59054-.55866,4.55615,4.55615,0,0,1,1.63652.20671,4.98006,4.98006,0,0,1,1.45026.73063,3.896,3.896,0,0,1,1.12063,1.21344,7.3761,7.3761,0,0,1-1.57733-.24439c-.48782-.11145-.94892-.25119-1.40305-.38979-.45418-.1394-.89716-.30114-1.35409-.457Z"/><path d="M419.18774,91.33559c2.65,0,2.65442-4.11846,0-4.11846-2.65,0-2.65442,4.11846,0,4.11846Z"/><path d="M396.39989,92.78867a1.45253,1.45253,0,0,0,0-2.90332,1.45253,1.45253,0,0,0,0,2.90332Z"/><path d="M428.65719,87.50321c2.65,0,2.65442-4.11846,0-4.11846-2.65,0-2.65442,4.11846,0,4.11846Z" fill="#b21919"/><path d="M433.53113,96.70123c2.65,0,2.65442-4.11846,0-4.11846-2.65,0-2.65442,4.11846,0,4.11846Z"/><path d="M416.2787,129.67171c-3.80164-1.244,1.79772-12.70342,1.79772-12.70342,7.22563,1.44241,12.28262-5.92842,15.06888-11.69188a26.10318,26.10318,0,0,0,2.4556-9.74442,49.33,49.33,0,0,1,1.2124-7.55418c-7.59761-2.68026-9.30158-16.896-9.30158-16.896s15.33154,7.11574,11.18955,22.91636c0,0,.02224,7.34548,2.11,10.8665S455.63457,142.55052,416.2787,129.67171Z"/><path d="M428.65719,105.49336a6.16317,6.16317,0,0,1-2.14845.83714,7.43989,7.43989,0,0,1-2.31594.12406,5.24808,5.24808,0,0,1-2.28145-.73522,2.98579,2.98579,0,0,1-1.43774-1.89151,5.83478,5.83478,0,0,0,1.88407.91763,11.09548,11.09548,0,0,0,1.98023.34438C425.70487,105.25341,427.116,105.25581,428.65719,105.49336Z"/><path d="M476.79414,174.45431l2.38347,4.05864-3.5235-3.12063a.74741.74741,0,1,1,.99108-1.119A.76792.76792,0,0,1,476.79414,174.45431Z"/><path d="M426.55339,133.68467a10.36336,10.36336,0,0,1,4.14635.34453c.67112.17674,1.32132.42078,1.98457.62892.64928.24224,1.27715.53553,1.91786.80159a19.99813,19.99813,0,0,1,1.86466.91349c.60863.32849,1.23868.62446,1.83106.98083,1.16717.73821,2.38063,1.41623,3.51367,2.20741a106.91978,106.91978,0,0,1,12.806,10.49478c4.02052,3.78171,7.84831,7.76308,11.504,11.88836l2.73824,3.09819c.9222,1.02513,1.82253,2.06826,2.69061,3.13781l5.27836,6.36153-1.35894.04222A190.15551,190.15551,0,0,0,489.395,151.41165a37.12122,37.12122,0,0,0,2.4144-6.20575,13.92068,13.92068,0,0,0,.32432-1.58582c.0341-.26046.04174-.51075.06677-.76725.01067-.26574-.00857-.56028-.01139-.839-.02035-1.13685-.00967-2.29253.04913-3.43628a40.39065,40.39065,0,0,1,2.85164-13.41295c.46124-1.06394,1.06951-2.04972,1.50554-3.04991a13.66262,13.66262,0,0,0,.90724-3.17765,20.13079,20.13079,0,0,1,.72551-3.37866,3.7977,3.7977,0,0,1,.97785-1.56991,2.27677,2.27677,0,0,1,1.8421-.52073,4.31058,4.31058,0,0,1,3.03026,1.86948,4.8555,4.8555,0,0,1,.74477,1.6447,7.13943,7.13943,0,0,1,.126,1.76677,27.0422,27.0422,0,0,1-1.3367,6.73018c-.08.26938-.16485.54089-.2293.80176a2.69747,2.69747,0,0,0-.07127.36917.48916.48916,0,0,0-.00146.11583.15819.15819,0,0,0-.06731-.06517c-.07075-.01149.06363-.00853.15428-.05944a2.04217,2.04217,0,0,0,.31817-.17819,4.3093,4.3093,0,0,0,.609-.50136,9.059,9.059,0,0,0,1.72337-2.76043,34.52286,34.52286,0,0,0,1.99643-6.4177c.24106-1.1001.4503-2.20791.63487-3.31969a5.00764,5.00764,0,0,1,1.77923-3.15792,4.99678,4.99678,0,0,1,3.48313-1.12116,4.91154,4.91154,0,0,1,3.3137,1.61449l-.77677.01387a4.783,4.783,0,0,1,1.17931-.98715,2.66594,2.66594,0,0,1,1.62188-.40035,2.405,2.405,0,0,1,1.511.816,6.03376,6.03376,0,0,1,.47487.63124l.3495.66508-.96865-.14282a3.03378,3.03378,0,0,1,1.346-.891,2.18077,2.18077,0,0,1,1.73213.21317,4.86594,4.86594,0,0,1,1.71812,2.3829,15.20572,15.20572,0,0,1,.78053,2.58333c.2226.86572.32481,1.73531.48405,2.60422l-.44065-.56124a6.397,6.397,0,0,1,3.30989,4.20844,12.64793,12.64793,0,0,1,.26,5.13126,27.4044,27.4044,0,0,1-3.3404,9.40347,26.07846,26.07846,0,0,1-6.53207,7.56718,35.23776,35.23776,0,0,1-4.14652,2.78287,17.76492,17.76492,0,0,1-4.72886,1.97211l.71823-.6901a239.745,239.745,0,0,1-9.67653,29.26213A115.75087,115.75087,0,0,1,495.432,191.3177a46.8433,46.8433,0,0,1-4.41228,6.46535,17.203,17.203,0,0,1-6.26441,5.05725,8.12084,8.12084,0,0,1-2.08248.53366,7.57336,7.57336,0,0,1-1.09341.049l-1.00443-.09225a15.38126,15.38126,0,0,1-1.97691-.29435,19.44044,19.44044,0,0,1-1.9285-.45691,41.75533,41.75533,0,0,1-7.273-2.86889,88.39631,88.39631,0,0,1-13.08778-8.22315,190.86631,190.86631,0,0,1-23.02147-20.40632.09369.09369,0,0,1,.13191-.133l.03293.03159c3.65924,3.51057,7.51729,6.92236,11.43971,10.18127,3.93174,3.26254,7.94593,6.42389,12.12105,9.348A94.98654,94.98654,0,0,0,470.0717,198.32a40.18274,40.18274,0,0,0,7.02837,2.64753,17.88017,17.88017,0,0,0,1.811.39886,13.802,13.802,0,0,0,1.82047.2417l.9076.07086a5.83465,5.83465,0,0,0,.82065-.0524,6.35025,6.35025,0,0,0,1.61631-.44348,15.49975,15.49975,0,0,0,5.46713-4.61737,48.00583,48.00583,0,0,0,4.195-6.22856,113.84642,113.84642,0,0,0,6.53124-13.73308c1.91716-4.71446,3.6216-9.52086,5.23451-14.35771,1.61491-4.8327,3.12454-9.7218,4.46073-14.62421l.00217-.008a.958.958,0,0,1,.7163-.68238,15.99683,15.99683,0,0,0,4.22011-1.73222,33.50223,33.50223,0,0,0,3.941-2.59355,24.58953,24.58953,0,0,0,6.16193-6.99793,25.828,25.828,0,0,0,3.27611-8.75834,11.15329,11.15329,0,0,0-.14343-4.51135,6.06606,6.06606,0,0,0-.8943-1.96184,4.36789,4.36789,0,0,0-1.48664-1.34343l-.03627-.01755a.74.74,0,0,1-.4046-.54395c-.13361-.83427-.21313-1.68864-.40409-2.50357a13.9768,13.9768,0,0,0-.65713-2.39051,3.82413,3.82413,0,0,0-1.17026-1.82376.95942.95942,0,0,0-.758-.11112,1.91907,1.91907,0,0,0-.80209.50345l-.00813.00836a.5955.5955,0,0,1-.8421.01177.60857.60857,0,0,1-.11865-.163l-.27022-.54649a5.45854,5.45854,0,0,0-.33032-.46247,1.29986,1.29986,0,0,0-.802-.48442,2.52164,2.52164,0,0,0-1.88656.96737l-.02465.02693a.5022.5022,0,0,1-.70952.03131l-.04287-.04437a3.903,3.903,0,0,0-2.61732-1.34761,4.4389,4.4389,0,0,0-1.50693.15673,4.51308,4.51308,0,0,0-1.35279.70293,4.13794,4.13794,0,0,0-1.52535,2.60269c-.20985,1.12065-.44454,2.23674-.71167,3.346a37.42826,37.42826,0,0,1-2.10612,6.52928,9.66848,9.66848,0,0,1-1.88952,2.95275,4.94768,4.94768,0,0,1-.70687.57156,2.66084,2.66084,0,0,1-.4251.2318.86192.86192,0,0,1-.66571.05224.50364.50364,0,0,1-.21716-.1822.6005.6005,0,0,1-.08454-.21155,1.04231,1.04231,0,0,1-.00739-.30658,3.24832,3.24832,0,0,1,.091-.46442c.074-.28886.16092-.55781.24417-.83108a26.31933,26.31933,0,0,0,1.35811-6.56328,6.575,6.575,0,0,0-.1285-1.6151,4.25643,4.25643,0,0,0-.66714-1.42671,3.67434,3.67434,0,0,0-2.59726-1.57387,1.60524,1.60524,0,0,0-1.32549.37447,3.1558,3.1558,0,0,0-.7756,1.30174,19.70505,19.70505,0,0,0-.66088,3.269,14.39439,14.39439,0,0,1-.924,3.35393c-.46645,1.08056-1.04254,2.04054-1.4508,3.0731a39.46984,39.46984,0,0,0-2.43753,13.13417c-.02816,1.12181-.01183,2.23447.03637,3.36339.01.28755.03592.55972.03272.85994-.01723.30841-.0225.62622-.05476.92805a15.19819,15.19819,0,0,1-.312,1.75254,38.41623,38.41623,0,0,1-2.34556,6.51527,115.68363,115.68363,0,0,1-6.47534,12.05528c-2.35707,3.898-4.79162,7.73242-7.421,11.46353a.85151.85151,0,0,1-1.353.05016l-.00618-.00792-5.1912-6.38162c-.85405-1.07364-1.73942-2.11978-2.64607-3.14734l-2.69271-3.107c-1.76477-2.10033-3.66458-4.07358-5.52332-6.0864-1.82795-2.0444-3.79728-3.94477-5.71441-5.90171a110.11473,110.11473,0,0,0-12.4156-10.70876c-1.09073-.82407-2.2575-1.53282-3.38466-2.30685-.57155-.37374-1.17787-.68564-1.76585-1.03214a19.56551,19.56551,0,0,0-1.80122-.96756c-.61824-.28384-1.22692-.59677-1.855-.85821-.63911-.22883-1.27223-.48612-1.91907-.6935a10.19976,10.19976,0,0,0-3.986-.53934l-.0244.003a.09572.09572,0,0,1-.02838-.18926Z"/><path d="M256.63949,181.49575a21.37969,21.37969,0,0,1,.69977-4.79315,24.39677,24.39677,0,0,1,1.70616-4.56076,22.20532,22.20532,0,0,1,6.00074-7.56657c-.89815,1.34775-1.803,2.64393-2.6292,3.98811-.82443,1.34274-1.59654,2.70905-2.28262,4.11807-.70581,1.39949-1.32021,2.843-1.89511,4.31035C257.65956,178.46005,257.195,179.97137,256.63949,181.49575Z"/><path d="M252.88815,180.54115a24.81779,24.81779,0,0,1-.11821-5.8085,18.86412,18.86412,0,0,1,1.62486-5.64847,22.14051,22.14051,0,0,1,1.46164-2.56488,20.16312,20.16312,0,0,1,1.84619-2.29413,55.19159,55.19159,0,0,1,4.29471-3.878c-1.11956,1.56448-2.38656,3.04747-3.57618,4.49785a24.893,24.893,0,0,0-4.719,10.04458C253.28457,176.71183,253.19264,178.62535,252.88815,180.54115Z"/><path d="M248.6156,172.93937a33.89389,33.89389,0,0,1,.47636-4.18461,15.31549,15.31549,0,0,1,1.39492-4.05356,17.24835,17.24835,0,0,1,1.115-1.84024c.42918-.585.86015-1.12943,1.31268-1.65769a36.105,36.105,0,0,1,2.84857-3.08644,36.10626,36.10626,0,0,1-2.083,3.64713,34.54652,34.54652,0,0,0-2.112,3.49211,25.48547,25.48547,0,0,0-1.56049,3.73349A39.49151,39.49151,0,0,1,248.6156,172.93937Z"/><path d="M359.40548,145.45117a66.38783,66.38783,0,0,1-13.63206-2.96555,98.80982,98.80982,0,0,1-12.98167-5.18864c-2.066-1.08039-4.18265-2.07532-6.18462-3.2766-1.00978-.58456-2.03259-1.149-3.03244-1.7509l-2.955-1.87915-1.47809-.94021-1.42727-1.01444-2.84966-2.03709c-1.874-1.39217-3.67421-2.88156-5.51524-4.31858l1.05051-.04821c-4.38106,4.53068-8.62584,9.23416-12.61477,14.11038-1.97914,2.45041-3.94107,4.91414-5.71353,7.495-.88073,1.2914-1.72175,2.60716-2.46039,3.96105a15.71508,15.71508,0,0,0-1.67047,4.15226l.01168-.17987a49.32681,49.32681,0,0,1-.48659,9.55706,43.13546,43.13546,0,0,1-.95752,4.7005,43.58538,43.58538,0,0,0-1.15578,4.50488,23.90589,23.90589,0,0,0-.18969,4.58949l.14382,2.34868a5.13607,5.13607,0,0,1-.30058,2.60281,2.019,2.019,0,0,1-1.199.95292,3.24988,3.24988,0,0,1-1.37814.08926,5.70679,5.70679,0,0,1-2.38321-.92863,5.228,5.228,0,0,1-.98061-.82882,3.66061,3.66061,0,0,1-.70744-1.12063,11.2663,11.2663,0,0,1-.62-2.3718c-.26139-1.57359-.44674-3.13542-.6529-4.69389a9.121,9.121,0,0,0-.49234-2.20772,5.06911,5.06911,0,0,0-1.25384-1.78459,2.214,2.214,0,0,0-1.863-.65953,3.48769,3.48769,0,0,0-1.80565,1.09805,18.39419,18.39419,0,0,0-2.65872,3.7793,40.61933,40.61933,0,0,0-2.02751,4.22464c-.30034.72294-.58449,1.45294-.85983,2.18628a13.32944,13.32944,0,0,1-.92911,2.22813,5.01754,5.01754,0,0,1-4.19727,2.38642,4.91616,4.91616,0,0,1-4.25232-2.30277l.51042.07631a4.776,4.776,0,0,1-1.32388.76041,2.56548,2.56548,0,0,1-1.59994.11018,2.27242,2.27242,0,0,1-1.27222-1.01482,6.09162,6.09162,0,0,1-.34981-.6914l-.2286-.71506.58776.19208a2.922,2.922,0,0,1-1.40994.6197,2.01919,2.01919,0,0,1-1.547-.46573,4.82552,4.82552,0,0,1-1.2574-2.60876,15.51767,15.51767,0,0,1-.33432-2.73731c-.07358-.91368-.02391-1.81733-.03273-2.72666l.226.41757a6.4294,6.4294,0,0,1-2.52295-4.681,12.92567,12.92567,0,0,1,.60471-5.18636,26.62214,26.62214,0,0,1,5.0432-8.93144,29.359,29.359,0,0,1,7.89616-6.57,30.29009,30.29009,0,0,1,4.68266-2.17476,18.06488,18.06488,0,0,1,5.12618-1.19368l-.73987.52823c2.432-6.18825,5.111-12.24573,7.92824-18.25556,2.83188-5.99957,5.83855-11.92472,9.17271-17.68553,1.66478-2.88164,3.43782-5.70677,5.35608-8.44562a61.96294,61.96294,0,0,1,6.34929-7.82809,27.25472,27.25472,0,0,1,3.90209-3.35162,12.13625,12.13625,0,0,1,4.91954-2.13369l.70394-.0801.62558-.03087,1.24935-.06063c.83249-.04879,1.66659-.0615,2.50026-.08306,1.66707-.04537,3.33626-.04342,5.004-.00368a94.172,94.172,0,0,1,19.8384,2.50844,69.61227,69.61227,0,0,1,18.63856,7.23011A54.86721,54.86721,0,0,1,370.20651,107.59a55.48663,55.48663,0,0,1,9.34637,17.4981.09678.09678,0,0,1-.06111.12247.09821.09821,0,0,1-.12185-.05926,54.99488,54.99488,0,0,0-9.83982-17.00011,53.74873,53.74873,0,0,0-15.20077-12.26382,70.287,70.287,0,0,0-18.35582-6.77175,95.32274,95.32274,0,0,0-19.49771-2.20306c-1.63831-.03394-3.27863-.03079-4.91728.0191-.81948.02381-1.6392.03862-2.45777.08937l-1.22824.06345-.61313.03209-.52807.06308a10.223,10.223,0,0,0-4.08907,1.82016,25.31174,25.31174,0,0,0-3.60051,3.11821c-4.47938,4.66082-8.0226,10.26808-11.388,15.893a292.21644,292.21644,0,0,0-17.29439,35.53109l-.00616.01484a.83619.83619,0,0,1-.734.51359A16.52785,16.52785,0,0,0,264.9573,145.1a28.75208,28.75208,0,0,0-12.09417,8.12033,25.41629,25.41629,0,0,0-4.9877,8.39209,11.75811,11.75811,0,0,0-.662,4.73607,6.555,6.555,0,0,0,.5937,2.25008,4.68109,4.68109,0,0,0,1.38694,1.73833l.01942.01377a.495.495,0,0,1,.20679.40413c-.00736.88364-.07349,1.77475-.01822,2.65209a14.71246,14.71246,0,0,0,.26562,2.60068,4.14622,4.14622,0,0,0,.96045,2.19839,1.23879,1.23879,0,0,0,.94284.3015,2.21532,2.21532,0,0,0,1.03078-.43044.378.378,0,0,1,.52907.076.40535.40535,0,0,1,.05891.11614l.19312.63229a5.69511,5.69511,0,0,0,.28216.5679,1.56039,1.56039,0,0,0,.86542.71984,2.812,2.812,0,0,0,2.28174-.71721l.01684-.01306a.33729.33729,0,0,1,.47324.05967l.02061.02973a4.23577,4.23577,0,0,0,3.66393,2.02066,4.37821,4.37821,0,0,0,3.679-2.05867,12.96963,12.96963,0,0,0,.89166-2.115c.28284-.7378.57463-1.47232.883-2.2004.62571-1.45176,1.267-2.90077,2.03356-4.29309A18.96536,18.96536,0,0,1,271.2,166.95922a4.12,4.12,0,0,1,2.16162-1.30825,2.90753,2.90753,0,0,1,2.44423.80618,5.76915,5.76915,0,0,1,1.456,2.03365,9.78786,9.78786,0,0,1,.56124,2.38018c.22134,1.5589.41469,3.12308.71437,4.64659a10.52727,10.52727,0,0,0,.6167,2.17344,2.76447,2.76447,0,0,0,.56251.852,4.32633,4.32633,0,0,0,.83411.67062,4.77257,4.77257,0,0,0,1.99225.72977,1.462,1.462,0,0,0,1.551-.55825,4.45,4.45,0,0,0,.125-2.04l-.19993-2.35911a24.90766,24.90766,0,0,1,.09233-4.83189,44.07326,44.07326,0,0,1,1.07789-4.66074,41.72026,41.72026,0,0,0,.82257-4.56609,54.30108,54.30108,0,0,0,.32108-9.28111l-.00072-.01555a.7086.7086,0,0,1,.01244-.16472,17.13546,17.13546,0,0,1,1.809-4.65263c.76863-1.43292,1.62726-2.79546,2.52153-4.12743q2.71439-3.97043,5.77966-7.63739c4.07938-4.89605,8.37448-9.57087,12.842-14.10968a.77345.77345,0,0,1,1.0292-.06546l.02159.01725c1.80585,1.43449,3.57172,2.923,5.411,4.315L318.556,127.243l1.39921,1.01851,1.43941.96,2.88,1.92132c.97516.61641,1.97351,1.19571,2.95957,1.79583,1.9548,1.23251,4.02482,2.25994,6.04753,3.37541A112.62113,112.62113,0,0,0,346.00268,141.8a71.02237,71.02237,0,0,0,13.41828,3.45824l.007.001a.09665.09665,0,0,1-.02244.19194Z"/><path d="M193.08464,127.20776A41.20058,41.20058,0,0,0,188.431,140.0213a59.51461,59.51461,0,0,0-1.03656,13.55119,80.70015,80.70015,0,0,0,5.94019,26.43727c.88226,2.095,1.70813,4.21457,2.72235,6.25417.49826,1.02286.94217,2.07213,1.4848,3.07379l1.59018,3.02389c1.03946,2.02761,2.25009,3.96392,3.36716,5.95223,1.22384,1.9248,2.41476,3.87335,3.66162,5.78677a244.25428,244.25428,0,0,0,16.58316,21.90058,165.47634,165.47634,0,0,1-17.83048-21.04883A119.08976,119.08976,0,0,1,191.536,180.7218a93.06935,93.06935,0,0,1-4.07757-13.29247,67.53181,67.53181,0,0,1-1.56833-13.82473,55.71634,55.71634,0,0,1,1.62115-13.793,49.32754,49.32754,0,0,1,2.23472-6.56569A29.5327,29.5327,0,0,1,193.08464,127.20776Z"/><path d="M170.78718,184.272a84.20249,84.20249,0,0,0,2.90143,10.09128q1.71126,4.95268,3.90924,9.69867a94.97106,94.97106,0,0,0,4.89386,9.20227,77.99873,77.99873,0,0,0,5.90293,8.55728,74.06437,74.06437,0,0,0,14.91424,14.38477,71.20532,71.20532,0,0,0,8.874,5.46868,83.8658,83.8658,0,0,0,9.57428,4.29889,63.4999,63.4999,0,0,1-19.30686-8.5249L200.25,235.94778c-.72012-.51923-1.40677-1.0834-2.11215-1.62356l-1.05029-.8209-1.00705-.87277c-.66492-.589-1.35788-1.149-2.00022-1.76315a73.98605,73.98605,0,0,1-7.20605-7.85,78.61246,78.61246,0,0,1-10.65424-18.351A75.85672,75.85672,0,0,1,170.78718,184.272Z"/><path d="M403.19989,438.39865a62.523,62.523,0,0,0,11.16149-2.3151,71.43,71.43,0,0,0,10.598-4.02881A64.41286,64.41286,0,0,0,443.344,419.14926a59.09573,59.09573,0,0,0,7.21621-8.644c1.13615-1.50342,2.04793-3.15723,3.06629-4.743l1.34578-2.488.67974-1.242.606-1.28a98.51965,98.51965,0,0,0,7.26054-21.55139,77.65052,77.65052,0,0,1-5.88926,22.18453c-.70187,1.80039-1.67477,3.476-2.52593,5.21027-1.00278,1.65088-1.90159,3.37058-3.03129,4.94537a59.06892,59.06892,0,0,1-7.35844,8.97406,59.72482,59.72482,0,0,1-8.95091,7.392,62.75572,62.75572,0,0,1-10.186,5.5196A59.83247,59.83247,0,0,1,403.19989,438.39865Z"/><path d="M415.96192,409.904a81.92353,81.92353,0,0,0,8.704-7.90149,110.91566,110.91566,0,0,0,7.69779-8.8331,108.67889,108.67889,0,0,0,12.35771-19.79379c.87927-1.73792,1.6429-3.52933,2.42975-5.31064.713-1.81119,1.47518-3.60559,2.09691-5.452a110.96852,110.96852,0,0,0,3.37936-11.1922,133.47779,133.47779,0,0,0,3.396-23.225,98.92285,98.92285,0,0,1-1.92259,23.55722A95.73944,95.73944,0,0,1,433.531,394.11868,79.36744,79.36744,0,0,1,415.96192,409.904Z"/><path d="M517.60232,111.29179a82.7163,82.7163,0,0,1-2.52035,8.12672,41.53352,41.53352,0,0,1-1.65923,3.912,13.92914,13.92914,0,0,1-2.30229,3.54785,13.75543,13.75543,0,0,0,1.96189-3.69786,40.99387,40.99387,0,0,0,1.29174-3.99081,81.68827,81.68827,0,0,0,1.76948-8.19115l.00218-.01324a.745.745,0,1,1,1.4701.24231C517.61232,111.24891,517.60754,111.27121,517.60232,111.29179Z"/><path d="M521.81647,111.62983a18.51118,18.51118,0,0,1-.14169,4.86184,23.63217,23.63217,0,0,1-1.17543,4.61563,24.69824,24.69824,0,0,1-2.038,4.26052,28.89034,28.89034,0,0,1-2.732,3.8091,28.69074,28.69074,0,0,0,2.40516-3.98674,24.14406,24.14406,0,0,0,1.65621-4.30969,22.70013,22.70013,0,0,0,.77464-4.51007,17.44077,17.44077,0,0,0-.21-4.459l-.0104-.05279a.74518.74518,0,0,1,1.46227-.288C521.81106,111.58986,521.81422,111.61068,521.81647,111.62983Z"/><path d="M526.75506,118.42169a24.75983,24.75983,0,0,1-.74747,3.5504,26.85871,26.85871,0,0,1-1.20753,3.36929,21.15838,21.15838,0,0,1-1.68233,3.13728,17.99823,17.99823,0,0,1-2.20911,2.75469A17.80347,17.80347,0,0,0,522.796,128.292a20.60294,20.60294,0,0,0,1.308-3.21314,25.9363,25.9363,0,0,0,.81577-3.35557,23.65582,23.65582,0,0,0,.34977-3.38565l.00063-.02826a.74564.74564,0,1,1,1.49091.03343A.77045.77045,0,0,1,526.75506,118.42169Z"/><path d="M222.78166,277.35239a1.45252,1.45252,0,0,0,0-2.90331,1.45252,1.45252,0,0,0,0,2.90331Z"/><path d="M227.07857,283.36225a1.45252,1.45252,0,0,0,0-2.90331,1.45252,1.45252,0,0,0,0,2.90331Z"/><path d="M230.73674,291.6367a1.45252,1.45252,0,0,0,0-2.90331,1.45252,1.45252,0,0,0,0,2.90331Z"/><path d="M231.25934,302.00153a1.45252,1.45252,0,0,0,0-2.90331,1.45252,1.45252,0,0,0,0,2.90331Z"/><path d="M230.21415,311.40827a1.45252,1.45252,0,0,0,0-2.90331,1.45252,1.45252,0,0,0,0,2.90331Z"/><path d="M226.73017,319.76982a1.45252,1.45252,0,0,0,0-2.90331,1.45252,1.45252,0,0,0,0,2.90331Z"/><path d="M236.9208,317.59234a1.45253,1.45253,0,0,0,0-2.90332,1.45253,1.45253,0,0,0,0,2.90332Z"/><path d="M246.24045,314.97935a1.45252,1.45252,0,0,0,0-2.90331,1.45252,1.45252,0,0,0,0,2.90331Z"/><path d="M257.56337,311.32118a1.45253,1.45253,0,0,0,0-2.90332,1.45253,1.45253,0,0,0,0,2.90332Z"/><path d="M268.5379,306.792a1.45252,1.45252,0,0,0,0-2.90331,1.45252,1.45252,0,0,0,0,2.90331Z"/><path d="M280.64473,299.91115a1.45253,1.45253,0,0,0,0-2.90332,1.45253,1.45253,0,0,0,0,2.90332Z"/><path d="M291.358,292.1593a1.45253,1.45253,0,0,0,0-2.90332,1.45253,1.45253,0,0,0,0,2.90332Z"/><path d="M300.35823,283.159a1.45252,1.45252,0,0,0,0-2.90331,1.45252,1.45252,0,0,0,0,2.90331Z"/><path d="M307.09392,273.63615a1.45253,1.45253,0,0,0,0-2.90332,1.45253,1.45253,0,0,0,0,2.90332Z"/><path d="M314.29415,262.25515a1.45252,1.45252,0,0,0,0-2.90331,1.45252,1.45252,0,0,0,0,2.90331Z"/><path d="M232.30453,275.262a1.45253,1.45253,0,0,0,0-2.90332,1.45253,1.45253,0,0,0,0,2.90332Z"/><path d="M242.05967,273.63615a1.45253,1.45253,0,0,0,0-2.90332,1.45253,1.45253,0,0,0,0,2.90332Z"/><path d="M251.58254,271.08123a1.45252,1.45252,0,0,0,0-2.90331,1.45252,1.45252,0,0,0,0,2.90331Z"/><path d="M262.03448,266.90046a1.45253,1.45253,0,0,0,0-2.90332,1.45253,1.45253,0,0,0,0,2.90332Z"/><path d="M272.71868,262.02289a1.45253,1.45253,0,0,0,0-2.90332,1.45253,1.45253,0,0,0,0,2.90332Z"/><path d="M281.777,255.51946a1.45252,1.45252,0,0,0,0-2.90331,1.45252,1.45252,0,0,0,0,2.90331Z"/><path d="M289.674,247.85471a1.45252,1.45252,0,0,0,0-2.90331,1.45252,1.45252,0,0,0,0,2.90331Z"/><path d="M297.33879,239.72543a1.45252,1.45252,0,0,0,0-2.90331,1.45252,1.45252,0,0,0,0,2.90331Z"/><path d="M305.9326,232.06068a1.45252,1.45252,0,0,0,0-2.90331,1.45252,1.45252,0,0,0,0,2.90331Z"/><path d="M313.59735,225.78952a1.45252,1.45252,0,0,0,0-2.90331,1.45252,1.45252,0,0,0,0,2.90331Z"/><path d="M321.9589,219.28609a1.45252,1.45252,0,0,0,0-2.90331,1.45252,1.45252,0,0,0,0,2.90331Z"/><path d="M330.08818,212.31814a1.45253,1.45253,0,0,0,0-2.90332,1.45253,1.45253,0,0,0,0,2.90332Z"/><path d="M327.76553,236.93825a1.45253,1.45253,0,0,0,0-2.90332,1.45253,1.45253,0,0,0,0,2.90332Z"/><path d="M336.5916,243.44167a1.45252,1.45252,0,0,0,0-2.90331,1.45252,1.45252,0,0,0,0,2.90331Z"/><path d="M347.2758,248.087a1.45253,1.45253,0,0,0,0-2.90332,1.45253,1.45253,0,0,0,0,2.90332Z"/><path d="M358.88906,250.40963a1.45252,1.45252,0,0,0,0-2.90331,1.45252,1.45252,0,0,0,0,2.90331Z"/><path d="M370.50232,248.55151a1.45253,1.45253,0,0,0,0-2.90332,1.45253,1.45253,0,0,0,0,2.90332Z"/><path d="M379.79293,241.119a1.45252,1.45252,0,0,0,0-2.90331,1.45252,1.45252,0,0,0,0,2.90331Z"/><path d="M388.619,231.36388a1.45252,1.45252,0,0,0,0-2.90331,1.45252,1.45252,0,0,0,0,2.90331Z"/><path d="M395.12243,218.82156a1.45252,1.45252,0,0,0,0-2.90331,1.45252,1.45252,0,0,0,0,2.90331Z"/><path d="M401.16133,206.74377a1.45252,1.45252,0,0,0,0-2.90331,1.45252,1.45252,0,0,0,0,2.90331Z"/><path d="M405.3421,196.52411a1.45253,1.45253,0,0,0,0-2.90332,1.45253,1.45253,0,0,0,0,2.90332Z"/><path d="M409.9874,185.83991a1.45253,1.45253,0,0,0,0-2.90332,1.45253,1.45253,0,0,0,0,2.90332Z"/><path d="M413.70365,174.69118a1.45253,1.45253,0,0,0,0-2.90332,1.45253,1.45253,0,0,0,0,2.90332Z"/><path d="M416.0263,163.07792a1.45253,1.45253,0,0,0,0-2.90332,1.45253,1.45253,0,0,0,0,2.90332Z"/><path d="M418.81348,151.92919a1.45252,1.45252,0,0,0,0-2.90331,1.45252,1.45252,0,0,0,0,2.90331Z"/><path d="M421.60066,140.31593a1.45252,1.45252,0,0,0,0-2.90331,1.45252,1.45252,0,0,0,0,2.90331Z"/><path d="M261.73208,145.71853a9.70148,9.70148,0,0,1,2.8221-1.90724,12.1971,12.1971,0,0,1,3.28742-.9864,11.97747,11.97747,0,0,1,3.43382-.03577,9.47669,9.47669,0,0,1,3.257,1.00409c-1.143.04765-2.228.06314-3.30115.12785-1.07211.06255-2.12491.18155-3.17131.33853-1.04651.15729-2.08652.36327-3.13144.61628C263.882,145.12877,262.84021,145.43457,261.73208,145.71853Z"/><path d="M492.69171,138.46666c.41792,1.95549.62819,3.888.858,5.82553l.29194,2.913a22.88184,22.88184,0,0,1,.139,2.9599,22.87146,22.87146,0,0,1-1.39236-5.767A21.58669,21.58669,0,0,1,492.69171,138.46666Z"/><path d="M514.98946,145.94226a11.71484,11.71484,0,0,1-7.05759,3.0321,11.56518,11.56518,0,0,1-2.61651-.10417,12.07187,12.07187,0,0,1,2.37962-1.00357l2.371-.75365c.7908-.23817,1.58734-.456,2.39865-.66147A19.63433,19.63433,0,0,1,514.98946,145.94226Z"/></svg>